<svg aria-hidden="true" style="position:absolute;width:0;height:0;overflow:hidden" xmlns="http://www.w3.org/2000/svg">
  <defs>
    <symbol id="icon-Vector-1" viewBox="0 0 165 32">
      <path stroke-linecap="round" stroke-width="3.793" d="m2.743 24.277 9.746-4.12a189.548 189.548 0 0 1 137.56-3.918 1.264 1.264 0 0 0 1.639-.839l3.333-11.518c.757-2.612 4.539-2.353 4.932.338l2.442 16.743a2.53 2.53 0 0 1-1.652 2.747l-15.751 5.625"/>
    </symbol>
    <symbol id="icon-Email" viewBox="0 0 40 32">
      <path d="M40 4c0-2.2-1.8-4-4-4H4C1.8 0 0 1.8 0 4v24c0 2.2 1.8 4 4 4h32c2.2 0 4-1.8 4-4V4zm-4 0L20 14 4 4h32zm0 24H4V8l16 10L36 8v20z"/>
    </symbol>
    <symbol id="icon-Phone" viewBox="0 0 32 32">
      <path d="M30.2 32c-4.16 0-8.073-.787-11.74-2.36s-6.867-3.727-9.599-6.461c-2.733-2.733-4.892-5.933-6.479-9.6S.002 5.986.003 1.801c-.027-.48.133-.9.48-1.261s.773-.541 1.28-.541h6.239c.48 0 .893.18 1.24.541s.52.794.52 1.299c0 1.173.08 2.28.24 3.32s.413 2.027.76 2.96c.133.293.16.593.08.899s-.24.593-.48.861l-4 4c1.147 2.347 2.773 4.573 4.88 6.68s4.373 3.787 6.799 5.04l4-4c.24-.24.52-.4.84-.48s.64-.053.96.08c.987.32 2.007.567 3.06.741s2.14.26 3.259.259c.507 0 .94.187 1.301.56s.54.827.539 1.36v6.12c0 .48-.173.893-.52 1.24s-.773.52-1.28.52zm-9.199-4.8c1.2.453 2.453.813 3.76 1.08s2.653.44 4.04.52v-3.44c-.827-.053-1.674-.147-2.541-.28s-1.727-.333-2.579-.6l-2.68 2.72zM28.8 16c0-3.573-1.24-6.6-3.72-9.08S19.574 3.2 16.001 3.2V0c2.213 0 4.293.42 6.239 1.261s3.64 1.98 5.08 3.419c1.44 1.44 2.58 3.133 3.42 5.08S32 13.787 31.999 16h-3.2zm-6.399 0c0-1.76-.627-3.267-1.88-4.52s-2.76-1.88-4.52-1.88V6.4c2.666 0 4.933.933 6.799 2.8s2.8 4.133 2.8 6.8h-3.2zM4.802 10.92l2.64-2.68c-.213-.773-.394-1.587-.541-2.44s-.247-1.72-.299-2.6h-3.36c.053 1.28.213 2.56.48 3.84s.627 2.573 1.08 3.88z"/>
    </symbol>
    <symbol id="icon-Vector-top" viewBox="0 0 54 32">
      <path d="m27.038 11.381.001.002L8.25 30.172a4.428 4.428 0 0 1-6.262-6.262l21.82-21.82a4.572 4.572 0 0 1 6.465 0l21.818 21.818a4.43 4.43 0 1 1-6.264 6.264L27.038 11.383c-.001-.001 0-.002.001-.002z"/>
    </symbol>
    <symbol id="icon-Group" viewBox="0 0 32 32">
      <path d="M25.263 16c0 5.116-4.147 9.263-9.263 9.263S6.737 21.116 6.737 16 10.884 6.737 16 6.737s9.263 4.147 9.263 9.263z"/>
      <path stroke-width="1.684" d="M27.789 16c0 6.511-5.278 11.789-11.789 11.789S4.211 22.511 4.211 16 9.489 4.211 16 4.211 27.789 9.489 27.789 16z"/>
      <path stroke-width="1.684" d="M31.158 16c0 8.371-6.786 15.158-15.158 15.158S.842 24.372.842 16C.842 7.629 7.628.842 16 .842S31.158 7.628 31.158 16z"/>
    </symbol>
    <symbol id="icon-x-twitter" viewBox="0 0 32 32">
      <path d="M23.814 3.797h4.142l-9.047 10.337 10.643 14.069h-8.331l-6.53-8.53-7.463 8.53H3.08l9.675-11.059L2.552 3.797h8.542l5.896 7.797 6.823-7.797zm-1.455 21.93h2.294L9.845 6.143H7.381l14.978 19.584z"/>
    </symbol>
    <symbol id="icon-ri_linkedin" viewBox="0 0 32 32">
      <path d="M9.33 6.482a2.592 2.592 0 1 1-5.185-.002 2.592 2.592 0 0 1 5.185.002zm.078 4.511H4.223v16.23h5.185v-16.23zm8.192 0h-5.159v16.23h5.107v-8.517c0-4.745 6.183-5.185 6.183 0v8.517h5.12v-10.28c0-7.998-9.152-7.7-11.304-3.772l.052-2.178z"/>
    </symbol>
    <symbol id="icon-Rectangle" viewBox="0 0 151 32">
      <path d="M0 5.486A5.486 5.486 0 0 1 5.486 0h145.371l-34.743 32H5.485a5.486 5.486 0 0 1-5.486-5.486V5.485z"/>
    </symbol>
    <symbol id="icon-Polygon" viewBox="0 0 55 32">
      <path d="M25.526 29.775a2.91 2.91 0 0 0 4.221 0L51.951 6.366c1.758-1.854.444-4.911-2.111-4.911H5.433c-2.555 0-3.869 3.057-2.111 4.911l22.204 23.409z"/>
    </symbol>
  </defs>
</svg>
