<svg aria-hidden="true" style="position: absolute; width: 0; height: 0; overflow: hidden;" version="1.1" xmlns="http://www.w3.org/2000/svg" xmlns:xlink="http://www.w3.org/1999/xlink">
<defs>
<symbol id="icon-Vector-1" viewBox="0 0 165 32">
<path stroke-linejoin="miter" stroke-linecap="round" stroke-miterlimit="4" stroke-width="3.7933" d="M2.743 24.277l9.746-4.12c43.743-18.493 92.835-19.891 137.56-3.918v0c0.686 0.245 1.436-0.139 1.639-0.839l3.333-11.518c0.757-2.612 4.539-2.353 4.932 0.338l2.442 16.743c0.174 1.192-0.518 2.341-1.652 2.747l-15.751 5.625"></path>
</symbol>
<symbol id="icon-Email" viewBox="0 0 40 32">
<path d="M40 4c0-2.2-1.8-4-4-4h-32c-2.2 0-4 1.8-4 4v24c0 2.2 1.8 4 4 4h32c2.2 0 4-1.8 4-4v-24zM36 4l-16 10-16-10h32zM36 28h-32v-20l16 10 16-10v20z"></path>
</symbol>
<symbol id="icon-Phone" viewBox="0 0 32 32">
<path d="M30.2 32c-4.16 0-8.073-0.787-11.74-2.36s-6.867-3.727-9.599-6.461c-2.733-2.733-4.892-5.933-6.479-9.6s-2.38-7.593-2.379-11.778c-0.027-0.48 0.133-0.9 0.48-1.261s0.773-0.541 1.28-0.541h6.239c0.48 0 0.893 0.18 1.24 0.541s0.52 0.794 0.52 1.299c0 1.173 0.080 2.28 0.24 3.32s0.413 2.027 0.76 2.96c0.133 0.293 0.16 0.593 0.080 0.899s-0.24 0.593-0.48 0.861l-4 4c1.147 2.347 2.773 4.573 4.88 6.68s4.373 3.787 6.799 5.040l4-4c0.24-0.24 0.52-0.4 0.84-0.48s0.64-0.053 0.96 0.080c0.987 0.32 2.007 0.567 3.060 0.741s2.14 0.26 3.259 0.259c0.507 0 0.94 0.187 1.301 0.56s0.54 0.827 0.539 1.36v6.12c0 0.48-0.173 0.893-0.52 1.24s-0.773 0.52-1.28 0.52zM21.001 27.2c1.2 0.453 2.453 0.813 3.76 1.080s2.653 0.44 4.040 0.52v-3.44c-0.827-0.053-1.674-0.147-2.541-0.28s-1.727-0.333-2.579-0.6l-2.68 2.72zM28.8 16c0-3.573-1.24-6.6-3.72-9.080s-5.506-3.72-9.079-3.72v-3.2c2.213 0 4.293 0.42 6.239 1.261s3.64 1.98 5.080 3.419c1.44 1.44 2.58 3.133 3.42 5.080s1.26 4.027 1.259 6.24h-3.2zM22.401 16c0-1.76-0.627-3.267-1.88-4.52s-2.76-1.88-4.52-1.88v-3.2c2.666 0 4.933 0.933 6.799 2.8s2.8 4.133 2.8 6.8h-3.2zM4.802 10.92l2.64-2.68c-0.213-0.773-0.394-1.587-0.541-2.44s-0.247-1.72-0.299-2.6h-3.36c0.053 1.28 0.213 2.56 0.48 3.84s0.627 2.573 1.080 3.88z"></path>
</symbol>
<symbol id="icon-Vector-top" viewBox="0 0 54 32">
<path d="M27.038 11.381c0.001 0 0.001 0.001 0.001 0.002l-18.789 18.789c-1.729 1.729-4.533 1.729-6.262 0s-1.729-4.533 0-6.262l21.82-21.82c1.785-1.785 4.68-1.785 6.465 0l21.818 21.818c1.73 1.73 1.73 4.536-0.001 6.265s-4.534 1.728-6.263-0.001l-18.789-18.789c-0.001-0.001-0-0.002 0.001-0.002z"></path>
</symbol>
<symbol id="icon-Group" viewBox="0 0 32 32">
<path d="M25.263 16c0 5.116-4.147 9.263-9.263 9.263s-9.263-4.147-9.263-9.263c0-5.116 4.147-9.263 9.263-9.263s9.263 4.147 9.263 9.263z"></path>
<path stroke-linejoin="miter" stroke-linecap="butt" stroke-miterlimit="4" stroke-width="1.6842" d="M27.789 16c0 6.511-5.278 11.789-11.789 11.789s-11.789-5.278-11.789-11.789c0-6.511 5.278-11.789 11.789-11.789s11.789 5.278 11.789 11.789z"></path>
<path stroke-linejoin="miter" stroke-linecap="butt" stroke-miterlimit="4" stroke-width="1.6842" d="M31.158 16c0 8.371-6.786 15.158-15.158 15.158s-15.158-6.786-15.158-15.158c0-8.371 6.786-15.158 15.158-15.158s15.158 6.786 15.158 15.158z"></path>
</symbol>
<symbol id="icon-x-twitter" viewBox="0 0 32 32">
<path d="M23.814 3.797h4.142l-9.047 10.337 10.643 14.069h-8.331l-6.53-8.53-7.463 8.53h-4.148l9.675-11.059-10.203-13.347h8.542l5.896 7.797 6.823-7.797zM22.359 25.727h2.294l-14.808-19.584h-2.464l14.978 19.584z"></path>
</symbol>
<symbol id="icon-ri_linkedin" viewBox="0 0 32 32">
<path d="M9.33 6.482c-0 0.688-0.274 1.347-0.76 1.833s-1.146 0.759-1.834 0.758c-0.688-0-1.347-0.274-1.833-0.76s-0.759-1.146-0.758-1.834c0-0.688 0.274-1.347 0.76-1.833s1.146-0.759 1.834-0.758c0.688 0 1.347 0.274 1.833 0.76s0.759 1.146 0.758 1.834zM9.408 10.993h-5.185v16.23h5.185v-16.23zM17.6 10.993h-5.159v16.23h5.107v-8.517c0-4.745 6.183-5.185 6.183 0v8.517h5.12v-10.28c0-7.998-9.152-7.7-11.304-3.772l0.052-2.178z"></path>
</symbol>
<symbol id="icon-Rectangle" viewBox="0 0 151 32">
<path d="M0 5.486c0-3.030 2.456-5.486 5.486-5.486h145.371l-34.743 32h-110.629c-3.030 0-5.486-2.456-5.486-5.486v-21.029z"></path>
</symbol>
<symbol id="icon-Polygon" viewBox="0 0 55 32">
<path d="M25.526 29.775c1.147 1.209 3.074 1.209 4.221 0l22.204-23.409c1.758-1.854 0.444-4.911-2.111-4.911h-44.407c-2.555 0-3.869 3.057-2.111 4.911l22.204 23.409z"></path>
</symbol>
</defs>
</svg>
